<svg width="60" height="60" viewBox="0 0 60 60" fill="none" xmlns="http://www.w3.org/2000/svg">
<path d="M58.9999 0H14C13.4477 0 13 0.447749 13 0.999998V16H15V2H57.9999V56.9999C58.0095 57.5258 57.6038 57.9663 57.0789 57.9999C56.9929 57.9999 56.9069 57.9929 56.8209 57.9909C56.6439 57.9859 56.4669 57.9819 56.2929 57.9639C56.2779 57.9639 56.2639 57.9639 56.2489 57.9579C52.9829 57.6009 50.403 55.0235 50.0429 51.7579C50.0429 51.7439 50.0379 51.7289 50.0359 51.7149C50.0117 51.4773 49.9997 51.2386 49.9999 50.9999V48.9999C49.9999 48.4476 49.5522 47.9999 48.9999 47.9999H15V29.9999H13V47.9999H5C4.44775 47.9999 4 48.4476 4 48.9999V50.9999C4.0055 55.9681 8.03174 59.9944 13 59.9999H57.0999C58.7226 59.9574 60.0124 58.6231 59.9999 56.9999V0.999998C59.9999 0.447749 59.5521 0 58.9999 0ZM13 57.9999C9.13586 57.9955 6.00437 54.864 6 50.9999V49.9999H47.9999V50.9999C48.0013 51.3296 48.0203 51.6591 48.0569 51.9869C48.0659 52.0739 48.0829 52.1579 48.0949 52.2439C48.1279 52.4859 48.1679 52.7269 48.2209 52.9639C48.2389 53.0469 48.2619 53.1289 48.2829 53.2119C48.3439 53.4529 48.4129 53.6899 48.4929 53.9239C48.5159 53.9909 48.5399 54.0569 48.5649 54.1239C48.6559 54.3719 48.7589 54.6139 48.8719 54.8529C48.8959 54.9019 48.9179 54.9529 48.9419 54.9979C49.0673 55.2513 49.2049 55.4975 49.3549 55.7369C49.3749 55.7689 49.3929 55.8019 49.4129 55.8369C49.5759 56.0923 49.7519 56.3393 49.9399 56.5769L49.9719 56.6199C50.1902 56.894 50.4239 57.1554 50.6719 57.4029C50.8873 57.6163 51.1105 57.8163 51.3419 58.0029L13 57.9999Z" fill="white"/>
<path d="M32.9999 28C33.2652 28 33.5194 27.8945 33.7069 27.707L37.7069 23.707C38.0973 23.3165 38.0973 22.6835 37.7069 22.293L33.7069 18.293C33.5194 18.1055 33.2652 18 32.9999 18H4.99999C2.23862 18 0 20.2386 0 23C0 25.7614 2.23862 28 4.99999 28H32.9999ZM32.7419 20.156L35.5859 23L32.7419 25.844L32.0309 23L32.7419 20.156ZM7.99998 20H30.7199L30.2199 22H9.99998V24H30.2199L30.7199 26H7.99998V20ZM2 23C2 21.3431 3.34312 20 4.99999 20H5.99999V26H4.99999C3.34312 26 2 24.6569 2 23Z" fill="white"/>
<path d="M23 42.9999H52.9999C53.5522 42.9999 53.9999 42.5522 53.9999 41.9999V12C53.9998 11.4477 53.552 11.0001 52.9997 11.0002C52.7345 11.0002 52.4804 11.1056 52.2929 11.293L22.293 41.2929C21.9025 41.6836 21.9026 42.3167 22.2932 42.7072C22.4807 42.8946 22.7349 42.9999 23 42.9999ZM51.9999 14.414V17H49.9999V19H51.9999V21H49.9999V23H51.9999V25H49.9999V27H51.9999V29H49.9999V31H51.9999V32.9999H49.9999V34.9999H51.9999V36.9999H49.9999V38.9999H51.9999V40.9999H49.9999V38.9999H47.9999V40.9999H45.9999V38.9999H43.9999V40.9999H41.9999V38.9999H39.9999V40.9999H37.9999V38.9999H36V40.9999H34V38.9999H32V40.9999H30V38.9999H28V40.9999H25.414L51.9999 14.414Z" fill="white"/>
<path d="M37.4849 37H46.9999C47.5522 37 47.9999 36.5522 47.9999 36V26.485C47.9998 25.9327 47.552 25.4851 46.9997 25.4852C46.7345 25.4852 46.4804 25.5906 46.2929 25.778L36.7779 35.293C36.3874 35.6836 36.3875 36.3167 36.7782 36.7072C36.9657 36.8946 37.2198 37 37.4849 37ZM45.9999 28.9V35H39.8999L45.9999 28.9Z" fill="white"/>
<path d="M45.9999 6H25.9999V8H45.9999V6Z" fill="white"/>
<path d="M48.9999 10H22.9999V12H48.9999V10Z" fill="white"/>
<path d="M23 30.9999H17V32.9999H23V30.9999Z" fill="white"/>
<path d="M21 34.9999H17V36.9999H21V34.9999Z" fill="white"/>
</svg>
