<svg width="51" height="60" viewBox="0 0 51 60" fill="none" xmlns="http://www.w3.org/2000/svg">
<path d="M40.3394 26.1596C40.8155 26.2566 41.2795 25.9497 41.3769 25.4727C41.5942 24.4079 41.7043 23.3123 41.7043 22.2159C41.7043 13.3031 34.475 6.05188 25.5889 6.05188C16.7029 6.05188 9.4736 13.3031 9.4736 22.2159C9.4736 31.1286 16.7029 38.3798 25.5889 38.3798C31.6457 38.3798 37.1358 35.0241 39.9167 29.6222C40.1394 29.1895 39.9704 28.6577 39.539 28.4343C39.1077 28.2108 38.5773 28.3806 38.3546 28.8131C35.8767 33.6263 30.9853 36.6164 25.5891 36.6164C17.6724 36.6164 11.2318 30.1563 11.2318 22.2157C11.2318 14.2752 17.6724 7.81507 25.5891 7.81507C33.5057 7.81507 39.9464 14.2752 39.9464 22.2157C39.9464 23.1936 39.8483 24.1703 39.6546 25.119C39.5572 25.5961 39.864 26.062 40.3394 26.1596Z" fill="white"/>
<path d="M35.369 18.9366C35.2654 18.6168 34.9895 18.384 34.6577 18.3363L28.9288 17.5132L26.3781 12.3025C26.0867 11.655 25.0912 11.6551 24.7999 12.3025L22.2491 17.5131L16.5203 18.3362C15.8154 18.4141 15.5092 19.3643 16.0326 19.8414L20.185 23.8849L19.1951 29.6042C19.0511 30.2985 19.8554 30.8871 20.4718 30.5346L25.5889 27.8229L30.7061 30.5346C31.3215 30.8871 32.1271 30.2985 31.9828 29.6042L30.9929 23.8849L35.1453 19.8414C35.3859 19.6074 35.4726 19.2564 35.369 18.9366ZM29.4352 22.9444C29.2267 23.1474 29.1317 23.4405 29.1813 23.7278L29.9444 28.1368L25.9995 26.0463C25.7426 25.9102 25.4352 25.9102 25.1783 26.0463L21.2333 28.1368L21.9964 23.7278C22.0461 23.4405 21.9511 23.1474 21.7426 22.9444L18.5414 19.8271L22.958 19.1925C23.2456 19.1511 23.4943 18.97 23.6224 18.7083L25.5888 14.6914L27.5552 18.7083C27.6833 18.9699 27.932 19.1511 28.2197 19.1925L32.6362 19.8271L29.4352 22.9444Z" fill="white"/>
<path d="M50.2565 52.4074L41.665 37.4815C45.427 33.498 47.7379 28.1226 47.7379 22.2156C47.7377 9.96584 37.8019 0 25.5889 0C21.8313 0 18.119 0.961177 14.8532 2.77969C14.4287 3.01609 14.2756 3.55276 14.5113 3.97855C14.7469 4.40412 15.282 4.55765 15.7064 4.32149C18.7118 2.64796 22.1291 1.76343 25.5889 1.76343C36.8325 1.76343 45.9797 10.9384 45.9797 22.2157C45.9797 33.4932 36.8325 42.6681 25.5889 42.6681C14.3454 42.6681 5.19817 33.4932 5.19817 22.2156C5.19817 16.1656 7.84777 10.4591 12.4678 6.55959C12.8392 6.24607 12.8869 5.68983 12.5743 5.31736C12.2617 4.94477 11.7072 4.89672 11.3358 5.21047C6.31804 9.44582 3.44013 15.6439 3.44013 22.2156C3.44013 28.1327 5.75875 33.5165 9.53208 37.5021L7.09884 41.7292C6.51576 42.7079 8.05861 43.6127 8.6213 42.6109L10.8333 38.7682C13.4796 41.144 16.6966 42.892 20.2499 43.7775L12.6647 56.955L10.7244 50.8299C10.5869 50.3956 10.142 50.1383 9.69828 50.2357L3.43955 51.6128L6.57003 46.1743C6.81275 45.7526 6.66871 45.2133 6.2483 44.9699C5.82778 44.7264 5.29029 44.8708 5.04757 45.2925L0.921101 52.4613C0.529645 53.0911 1.15129 53.9468 1.87068 53.7635L9.29158 52.1305L11.5922 59.393C11.7933 60.1075 12.8399 60.2239 13.1911 59.5669L22.0656 44.1492C23.2132 44.3341 24.3897 44.4314 25.5886 44.4314C26.7973 44.4314 27.9832 44.3323 29.1398 44.1445L34.4698 53.4044C34.6326 53.6873 34.9281 53.8453 35.2319 53.8453C35.381 53.8453 35.5322 53.8072 35.6706 53.727C36.091 53.4835 36.235 52.9443 35.9923 52.5226L30.9547 43.7708C34.5065 42.8809 37.7213 41.129 40.3647 38.7499L47.7377 51.559L41.479 50.1819C41.0353 50.0842 40.5905 50.3419 40.4529 50.7761L38.5126 56.9012L38.0433 56.0859C37.8006 55.6642 37.263 55.5199 36.8426 55.7633C36.4222 56.0068 36.2782 56.546 36.5209 56.9677L37.986 59.5132C38.3374 60.1703 39.3839 60.0537 39.585 59.3394L41.8856 52.0768L49.3065 53.7098C50.0266 53.8924 50.6478 53.0373 50.2565 52.4074Z" fill="white"/>
</svg>
