<svg width="60" height="58" viewBox="0 0 60 58" fill="none" xmlns="http://www.w3.org/2000/svg">
<path d="M59.1211 48.4413C58.6356 48.4413 58.2422 48.8348 58.2422 49.3202V55.1928C58.2422 55.2744 58.1759 55.3408 58.0942 55.3408H54.7546V42.4998C54.7546 42.0144 54.3612 41.6209 53.8757 41.6209C53.3902 41.6209 52.9968 42.0144 52.9968 42.4998V55.3409H46.5433L48.2899 53.4194C48.5597 53.1226 48.6869 52.7011 48.6303 52.2917C48.629 52.2829 48.6277 52.2743 48.6262 52.2655L46.6627 40.6644L47.024 40.1205L47.1181 40.1873C47.4402 40.4162 47.8511 40.4996 48.2486 40.4004C48.6389 40.3028 48.966 40.0402 49.1458 39.6802V39.68L51.1437 35.6756L55.7076 37.4432C55.8877 37.5214 58.2417 38.6009 58.2417 41.4094V45.2184C58.2418 45.7039 58.6352 46.0974 59.1207 46.0974C59.6063 46.0974 59.9996 45.7039 59.9996 45.2185V41.4095C59.9996 37.3536 56.5209 35.877 56.3729 35.816C56.3673 35.8137 56.3618 35.8115 56.3562 35.8093L48.5847 32.7995V31.1987C49.7978 30.2228 50.6497 28.8162 50.9056 27.2127C51.5106 27.1368 52.0719 26.8946 52.5378 26.4939C53.2057 25.9194 53.589 25.0835 53.589 24.2008C53.589 23.4961 53.3445 22.8218 52.9065 22.2863V19.9146C52.9065 15.2733 49.1305 11.4974 44.4894 11.4974C42.4057 11.4974 40.4979 12.2601 39.0264 13.5189C39.0074 12.8454 38.7664 12.2037 38.3463 11.69V9.31846C38.3463 4.67714 34.5702 0.901245 29.9292 0.901245C25.2878 0.901245 21.512 4.67725 21.512 9.31846V11.7518C21.0895 12.2567 20.8531 12.8654 20.8323 13.5114C19.8934 12.709 18.7697 12.1049 17.5173 11.7752C17.0471 11.6514 16.567 11.9318 16.4434 12.4013C16.3197 12.8708 16.6 13.3516 17.0695 13.4752C19.989 14.244 22.028 16.892 22.028 19.9145V21.229C21.9901 21.2212 21.8682 21.2002 21.8635 21.1995C21.8516 20.9514 21.7887 20.7999 21.6535 20.6053C21.4285 20.282 21.0245 19.8793 19.7248 18.4824C19.2617 17.9849 18.5127 17.8936 17.9441 18.2654C15.7181 19.7194 13.0138 20.4605 10.5041 20.3132C9.68658 20.2653 9.176 20.6244 8.95838 21.2131C8.93893 21.2162 8.72155 21.2601 8.70948 21.263V19.9145C8.70948 17.0002 10.6569 14.3784 13.4451 13.5385C13.9099 13.3986 14.1732 12.9083 14.0333 12.4434C13.8933 11.9785 13.4022 11.7152 12.9381 11.8553C11.2424 12.366 9.71811 13.4294 8.64643 14.8492C7.53749 16.3181 6.95143 18.0696 6.95143 19.9146V22.3482C6.5087 22.8771 6.26929 23.52 6.26929 24.2008C6.26929 25.7055 7.37788 27.0177 8.95733 27.2134C9.21608 28.7794 10.0657 30.2811 11.4065 31.3022V32.8L3.6437 35.8096C3.6382 35.8117 3.63269 35.8139 3.62718 35.8161C3.47882 35.877 0 37.3535 0 41.4094V55.1928C0 56.2439 0.854998 57.0988 1.90605 57.0988H28.9729C29.3512 57.0988 29.7031 56.9866 30.0001 56.7958C30.2968 56.9866 30.6488 57.0988 31.0272 57.0988H58.0942C59.1451 57.0988 60.0001 56.2439 60.0001 55.1928V49.3202C60 48.8348 59.6066 48.4413 59.1211 48.4413ZM8.87131 25.3974C8.35604 25.2103 8.02686 24.7337 8.02686 24.2005C8.02686 23.6834 8.40186 23.2585 8.87131 23.0568V25.3974ZM49.4974 35.038L47.7722 38.4957C47.772 38.4955 45.8559 37.1346 45.8287 37.1153C46.6553 36.0948 46.2669 36.5742 47.9858 34.4527L49.4974 35.038ZM44.5581 35.8909L42.285 33.0851V32.2419C43.0239 32.4974 43.8198 32.6153 44.569 32.6155C44.5691 32.6155 44.5694 32.6155 44.5695 32.6155H44.5696C45.3442 32.6154 46.1284 32.4683 46.8269 32.2055V33.0905L44.5581 35.8909ZM45.5901 39.1022L45.2668 39.5889H43.8498L43.5265 39.1022L44.5584 38.3694L45.5901 39.1022ZM29.9977 25.2946L27.7246 22.4888V21.6456C28.4606 21.9 29.2557 22.019 30.0086 22.0192C30.0087 22.0192 30.009 22.0192 30.0091 22.0192H30.0092C30.7824 22.0192 31.5665 21.8726 32.2665 21.6093V22.4942L29.9977 25.2946ZM31.0296 28.5061L30.7062 28.9928H29.2893L28.966 28.5061L29.9978 27.7733L31.0296 28.5061ZM23.0763 16.5329C23.22 16.572 23.3676 16.5986 23.5175 16.6171C23.7762 18.1831 24.6259 19.6848 25.9667 20.7059V22.2037L24.1736 22.8987C24.0697 22.6804 23.9397 22.4747 23.7855 22.2862V19.9146C23.7855 18.7219 23.5343 17.5754 23.0763 16.5329ZM34.6682 15.6022C34.6682 18.1748 32.5696 20.261 30.0092 20.261C27.1204 20.261 25.1899 18.0222 25.1899 15.6022V11.4851C27.9652 11.5962 30.8484 10.7737 33.2056 9.3065C33.9981 10.1563 34.4697 10.6501 34.6683 10.8793C34.6682 13.0675 34.6682 13.9124 34.6682 15.6022ZM36.3453 16.6165C36.4943 16.5978 36.6413 16.5711 36.7841 16.532C36.3276 17.568 36.0721 18.7117 36.0721 19.9146V22.348C35.937 22.5094 35.8208 22.6813 35.7245 22.8617L34.0244 22.2033V20.6025C35.2374 19.6265 36.0895 18.2199 36.3453 16.6165ZM26.5669 23.8578L28.7246 26.521L27.2532 27.566C27.2524 27.5666 27.2518 27.5672 27.251 27.5678L26.784 27.8996L25.0586 24.4419L26.5669 23.8578ZM32.0206 25.5903L33.4253 23.8564L34.9369 24.4417L33.2118 27.8996L32.7438 27.5672C32.7433 27.5669 32.7428 27.5664 32.7424 27.566L31.2683 26.519L32.0206 25.5903ZM32.4636 29.5244L32.5577 29.5912C32.8863 29.8246 33.2986 29.9017 33.6882 29.8042C34.0785 29.7066 34.4056 29.444 34.5854 29.084V29.0838L36.0687 26.1109C36.5784 26.739 37.3155 27.1211 38.0746 27.2159C38.3427 28.8963 39.2511 30.3305 40.5272 31.3022V32.7999L33.0549 35.6968L32.1022 30.0683L32.4636 29.5244ZM41.1273 34.4539L43.285 37.1171C42.3416 37.7873 41.3932 38.4611 41.3444 38.4957L39.619 35.0381L41.1273 34.4539ZM49.2285 26.1985C49.2287 28.7083 47.1905 30.8574 44.5696 30.8574C41.5823 30.8574 39.7503 28.5176 39.7503 26.1985V22.0814C42.5058 22.1915 45.3927 21.3798 47.7659 19.9028C48.5584 20.7527 49.03 21.2464 49.2286 21.4756C49.2285 23.6637 49.2285 24.5087 49.2285 26.1985ZM51.8312 24.2007C51.8312 24.7348 51.501 25.2105 50.9868 25.3974V23.0064C51.5183 23.2 51.8312 23.6857 51.8312 24.2007ZM37.83 19.9145C37.83 16.2426 40.8175 13.2552 44.4893 13.2552C48.1613 13.2552 51.1485 16.2427 51.1485 19.9145V21.229C51.1085 21.2207 50.9986 21.2017 50.984 21.1995C50.972 20.9512 50.9088 20.7993 50.774 20.6053C50.543 20.2736 50.1434 19.8777 48.8453 18.4824C48.392 17.9958 47.6446 17.8862 47.0645 18.2654C44.8989 19.68 42.1628 20.4791 39.5593 20.31C38.8279 20.2621 38.2981 20.6202 38.0788 21.2132C38.0593 21.2164 37.8422 21.2602 37.8299 21.2631V19.9145H37.83ZM37.9923 23.0569V25.3962C37.4756 25.2099 37.1479 24.732 37.1479 24.2005C37.1478 23.6834 37.5225 23.2587 37.9923 23.0569ZM37.2706 13.6045C37.2706 13.9745 37.1104 14.3246 36.8311 14.5647C36.7113 14.6678 36.5746 14.747 36.4261 14.8011V12.4101C36.9517 12.6009 37.2706 13.084 37.2706 13.6045ZM29.9288 2.65905C33.6008 2.65905 36.5881 5.64639 36.5881 9.31834V10.6328C36.5484 10.6246 36.4382 10.6055 36.4236 10.6033C36.4106 10.3341 36.333 10.1686 36.1747 9.95455C35.9393 9.63603 35.5055 9.1981 34.2849 7.88608C33.824 7.39119 33.0754 7.29569 32.5041 7.66904C30.2171 9.16318 27.4427 9.89033 24.928 9.71021C24.3127 9.66369 23.7335 10.0354 23.5185 10.6168C23.499 10.6199 23.2818 10.6638 23.2696 10.6667V9.31846H23.2695C23.2695 5.64639 26.257 2.65905 29.9288 2.65905ZM23.4317 12.4606V14.8012C22.9164 14.6141 22.5873 14.1375 22.5873 13.6043C22.5873 13.0901 22.9593 12.6637 23.4317 12.4606ZM21.8656 23.0064C22.3573 23.1853 22.6732 23.6144 22.7044 24.1242C22.7438 24.6912 22.3954 25.2039 21.8656 25.3963V23.0064ZM21.7842 27.2156C22.6132 27.1119 23.3741 26.6751 23.873 26.003L25.4103 29.0838C25.4103 29.0838 25.4103 29.0838 25.4104 29.084C25.5901 29.4441 25.9171 29.7066 26.3075 29.8042C26.6934 29.9006 27.1062 29.8268 27.438 29.5912L27.5321 29.5244L27.8934 30.0682L26.941 35.6952L19.464 32.7994V31.1993H19.4639C20.7087 30.1956 21.5343 28.7774 21.7842 27.2156ZM15.4371 35.8909L13.164 33.0851V32.2419C13.8999 32.4963 14.6952 32.6153 15.4481 32.6154C15.4482 32.6154 15.4484 32.6154 15.4486 32.6154C16.2344 32.6154 17.0172 32.4645 17.7058 32.2055V33.0905L15.4371 35.8909ZM16.469 39.1022L16.1457 39.5889H14.7288L14.4055 39.1022L15.4373 38.3694L16.469 39.1022ZM18.8647 34.4527L20.3764 35.0381L18.6512 38.4957L18.1831 38.1634C18.1827 38.163 18.1822 38.1626 18.1817 38.1622L16.7076 37.1153L18.8647 34.4527ZM10.6292 26.1985V22.0814C13.4193 22.1929 16.3044 21.3594 18.6448 19.9028C19.4299 20.7447 19.9087 21.2461 20.1076 21.4756C20.1076 23.6638 20.1076 24.5089 20.1076 26.1985C20.1076 28.7547 18.0234 30.8574 15.4486 30.8574C12.5818 30.8574 10.6292 28.644 10.6292 26.1985ZM12.0064 34.4539L14.1641 37.1171L12.6927 38.1622C12.6919 38.1628 12.6913 38.1634 12.6904 38.164L12.2235 38.4957L10.4981 35.0381L12.0064 34.4539ZM7.00346 55.3411V42.4998C7.00346 42.0144 6.61007 41.6209 6.12456 41.6209C5.63905 41.6209 5.24565 42.0144 5.24565 42.4998V55.3409H1.90605C1.82425 55.3409 1.75793 55.2745 1.75793 55.1929V41.4094C1.75793 38.5864 4.13648 37.5104 4.29046 37.4439L8.85151 35.6756L10.8497 39.68C10.8497 39.68 10.8497 39.68 10.8498 39.6802C11.0294 40.0403 11.3565 40.3028 11.747 40.4004C12.1329 40.4968 12.5457 40.423 12.8775 40.1873L12.9716 40.1205L13.3329 40.6644L11.3694 52.2655C11.3679 52.2742 11.3666 52.2829 11.3653 52.2917C11.3088 52.7008 11.436 53.1224 11.7058 53.4197L13.4523 55.3409H7.00346V55.3411ZM13.1335 52.3766L15.0002 41.3468H15.8743L17.7411 52.3766L15.4373 54.911L13.1335 52.3766ZM29.1209 55.1928C29.1209 55.2745 29.0546 55.3409 28.9729 55.3409H25.6335V42.4998C25.6335 42.0144 25.2401 41.6209 24.7546 41.6209C24.2691 41.6209 23.8757 42.0144 23.8757 42.4998V55.3409H17.4222L19.1689 53.4194C19.4387 53.1226 19.5658 52.7011 19.5092 52.2917C19.5079 52.2829 19.5066 52.2743 19.5051 52.2655L17.5416 40.6644L17.9029 40.1205L17.997 40.1873C18.2322 40.3545 18.5107 40.4416 18.7932 40.4416C19.3087 40.4416 19.7888 40.1528 20.0248 39.6802V39.68L22.0228 35.6757L26.5866 37.4433C27.9169 38.022 29.1208 39.5143 29.1208 41.4094V55.1928H29.1209ZM29.9999 38.2155C29.6358 37.6289 29.1512 37.0861 28.5669 36.6229L29.5607 30.7507H30.4348L31.4292 36.6259C30.8293 37.1023 30.3509 37.65 29.9999 38.2155ZM36.1244 55.3411V42.4998C36.1244 42.0144 35.731 41.6209 35.2455 41.6209C34.76 41.6209 34.3666 42.0144 34.3666 42.4998V55.3409H31.0271C30.9454 55.3409 30.879 55.2745 30.879 55.1929V41.4094C30.879 40.3645 31.2066 39.4022 31.9046 38.5937C32.3699 38.0599 32.9872 37.6277 33.4116 37.4439L37.9727 35.6755L39.9708 39.68C39.9708 39.68 39.9708 39.68 39.9709 39.6802C40.1506 40.0403 40.4777 40.3028 40.868 40.4004C41.2539 40.4968 41.6668 40.423 41.9985 40.1873L42.0926 40.1205L42.4539 40.6644L40.4904 52.2655C40.4889 52.2742 40.4876 52.2829 40.4863 52.2917C40.4298 52.7008 40.557 53.1224 40.8269 53.4197L42.5733 55.3409H36.1244V55.3411ZM42.2544 52.3767L44.1212 41.3469H44.9953L46.8621 52.3767L44.5582 54.9111L42.2544 52.3767Z" fill="white"/>
</svg>
