<svg width="60" height="60" viewBox="0 0 60 60" fill="none" xmlns="http://www.w3.org/2000/svg">
<path d="M50.9883 34.9454L50.7103 35.0954C49.5874 33.7327 47.642 33.2047 46.1598 33.9559C46.1545 33.9584 46.1493 33.9612 46.1441 33.9639L45.4878 34.3173C44.7052 33.6546 43.7372 33.2495 42.7158 33.1572C41.6945 33.0649 40.6695 33.29 39.7808 33.8016L36.247 35.7235H31.5448C30.5266 35.7222 29.5217 35.4919 28.6045 35.0498L27.9576 34.7369C26.116 33.8408 24.0623 33.4719 22.0239 33.671C19.9856 33.8701 18.0421 34.6294 16.4086 35.8648C16.3932 35.8766 16.3782 35.8883 16.3639 35.9015L14.8022 37.2918C14.212 37.816 13.5143 38.2049 12.7581 38.4312L11.8711 35.5196C11.8271 35.3755 11.7381 35.2493 11.617 35.1596C11.4959 35.07 11.3492 35.0216 11.1985 35.0216H3.64546C3.54594 35.0216 3.44755 35.0427 3.35681 35.0835C3.26606 35.1244 3.18502 35.184 3.11904 35.2585C3.05307 35.3331 3.00366 35.4207 2.97409 35.5157C2.94451 35.6108 2.93545 35.711 2.94749 35.8098L5.46514 56.4535C5.48593 56.624 5.56839 56.781 5.69697 56.8948C5.82555 57.0087 5.99136 57.0716 6.16311 57.0716H17.4921C17.602 57.0716 17.7103 57.0458 17.8085 56.9964C17.9066 56.9469 17.9918 56.8752 18.0571 56.7869C18.1225 56.6986 18.1663 56.5962 18.185 56.4879C18.2037 56.3796 18.1967 56.2685 18.1646 56.1634L16.6764 51.2797L21.3116 48.35C21.9318 48.0068 22.6594 47.9127 23.3466 48.0867C23.3611 48.0903 23.3757 48.0936 23.3905 48.0962L32.8193 49.8324C35.3817 50.2909 38.0235 49.9179 40.3588 48.7679C40.3886 48.7532 40.4174 48.7363 40.4448 48.7175L56.7531 37.52C56.9008 37.4186 57.0042 37.2645 57.0422 37.0894C57.0802 36.9143 57.0499 36.7312 56.9575 36.5777C56.3641 35.5894 55.4123 34.8681 54.3003 34.564C53.1884 34.26 52.002 34.3966 50.9883 34.9454ZM46.8027 35.2065C47.6599 34.7772 48.7391 35.1291 49.4284 35.7869L43.2442 39.1232L42.8809 39.3146C42.6851 38.7586 42.3989 38.2387 42.0339 37.7758L46.8027 35.2065ZM40.4613 35.0325C40.4668 35.0293 40.473 35.0262 40.478 35.023C41.0318 34.7028 41.6615 34.5371 42.3012 34.5431C42.9409 34.5491 43.5673 34.7267 44.1151 35.0572L40.9709 36.7501C40.3714 36.3126 39.6875 36.0047 38.9625 35.8462L40.4613 35.0325ZM6.78514 55.6653L4.43964 36.4278H10.6774L16.5426 55.6653H6.78514ZM39.6895 47.5289C37.6363 48.5284 35.3188 48.8504 33.0709 48.4486L23.6653 46.7165C22.6307 46.4611 21.5377 46.6092 20.6085 47.1308C20.5976 47.1368 20.5867 47.1433 20.576 47.1501L16.25 49.8849L13.168 39.7774C14.1184 39.491 14.9948 39.0008 15.7364 38.341L17.2761 36.9699C18.7027 35.8974 20.3975 35.2395 22.1741 35.0686C23.9506 34.8977 25.7398 35.2205 27.3446 36.0014L27.9914 36.3143C29.0996 36.8484 30.3137 37.1266 31.5439 37.1282H37.8164C38.7382 37.1295 39.6307 37.4518 40.3407 38.0397C41.0507 38.6276 41.5338 39.4444 41.707 40.3497L37.1607 40.1441C35.508 40.0698 33.8519 40.1463 32.2131 40.3727C32.0298 40.3999 31.8647 40.4984 31.7536 40.6466C31.6425 40.7949 31.5944 40.9811 31.6198 41.1646C31.6453 41.3482 31.7421 41.5143 31.8893 41.6268C32.0365 41.7393 32.2222 41.7892 32.406 41.7656C33.9598 41.5508 35.5301 41.4783 37.0971 41.549L42.4474 41.791C42.4581 41.791 42.4687 41.7917 42.4793 41.7917C42.6658 41.7917 42.8446 41.7176 42.9765 41.5858C43.1083 41.4539 43.1824 41.2751 43.1824 41.0886C43.1824 40.9748 43.1776 40.8621 43.1707 40.7499L43.9044 40.3632L51.6562 36.1824C52.2516 35.86 52.9367 35.7434 53.6052 35.8505C54.2737 35.9577 54.8881 36.2826 55.3528 36.7749L39.6895 47.5289Z" fill="white"/>
<path d="M9.02039 52.7564C9.02039 53.1942 9.15022 53.6222 9.39346 53.9862C9.6367 54.3503 9.98243 54.634 10.3869 54.8016C10.7914 54.9691 11.2365 55.0129 11.6659 54.9275C12.0953 54.8421 12.4898 54.6313 12.7994 54.3217C13.1089 54.0121 13.3198 53.6177 13.4052 53.1883C13.4906 52.7588 13.4468 52.3138 13.2792 51.9093C13.1117 51.5048 12.8279 51.159 12.4639 50.9158C12.0999 50.6726 11.6719 50.5427 11.2341 50.5427C10.6472 50.5434 10.0845 50.7768 9.66947 51.1918C9.25447 51.6068 9.02104 52.1695 9.02039 52.7564ZM11.2341 51.949C11.3937 51.949 11.5499 51.9963 11.6826 52.085C11.8154 52.1738 11.9189 52.2999 11.98 52.4474C12.0411 52.5949 12.0571 52.7573 12.026 52.9139C11.9948 53.0705 11.9179 53.2144 11.805 53.3273C11.6921 53.4402 11.5482 53.5171 11.3916 53.5483C11.235 53.5795 11.0726 53.5635 10.9251 53.5024C10.7775 53.4412 10.6514 53.3377 10.5627 53.205C10.474 53.0722 10.4266 52.9161 10.4266 52.7564C10.427 52.5424 10.5122 52.3373 10.6635 52.186C10.8149 52.0347 11.02 51.9495 11.2341 51.9492V51.949Z" fill="white"/>
<path d="M35.3463 10.5826V8.26555C35.3397 6.85439 34.7745 5.50328 33.7743 4.50776C32.7741 3.51225 31.4204 2.95337 30.0092 2.95337C28.598 2.95337 27.2443 3.51225 26.2441 4.50776C25.2439 5.50328 24.6787 6.85439 24.6721 8.26555V10.5826C24.6787 11.9937 25.2439 13.3449 26.2441 14.3404C27.2443 15.3359 28.598 15.8948 30.0092 15.8948C31.4204 15.8948 32.7741 15.3359 33.7743 14.3404C34.7745 13.3449 35.3397 11.9937 35.3463 10.5826ZM26.0783 10.5826V8.26555C26.084 7.22673 26.5006 6.2324 27.2372 5.49984C27.9738 4.76728 28.9704 4.35607 30.0092 4.35607C31.048 4.35607 32.0446 4.76728 32.7812 5.49984C33.5177 6.2324 33.9344 7.22673 33.9401 8.26555V10.5826C33.9344 11.6214 33.5177 12.6157 32.7812 13.3483C32.0446 14.0808 31.048 14.4921 30.0092 14.4921C28.9704 14.4921 27.9738 14.0808 27.2372 13.3483C26.5006 12.6157 26.084 11.6214 26.0783 10.5826Z" fill="white"/>
<path d="M21.4064 30.4014H38.6121C38.7986 30.4014 38.9774 30.3273 39.1093 30.1955C39.2412 30.0636 39.3152 29.8848 39.3152 29.6983V28.0844H51.0938C51.2802 28.0844 51.4591 28.0103 51.5909 27.8784C51.7228 27.7466 51.7969 27.5677 51.7969 27.3812V22.8175C51.7961 21.4784 51.2856 20.1897 50.3691 19.2134C49.4526 18.2371 48.1987 17.6462 46.8623 17.5609C46.4873 17.5334 46.2946 17.7708 46.1382 17.9615C45.8272 18.3415 45.4334 18.6456 44.9871 18.8504C44.5407 19.0553 44.0534 19.1555 43.5624 19.1435C43.0714 19.1316 42.5896 19.0076 42.1538 18.7812C41.7179 18.5548 41.3395 18.2319 41.0474 17.8371C40.9803 17.7463 40.8922 17.6729 40.7907 17.6233C40.6893 17.5737 40.5773 17.5492 40.4644 17.552C39.551 17.5725 38.6591 17.8327 37.8779 18.3066C37.3622 17.7069 36.7314 17.2168 36.0229 16.8654C35.3143 16.514 34.5424 16.3083 33.7529 16.2606C33.3896 16.2458 33.2059 16.4664 33.0279 16.6825C32.6629 17.1285 32.2009 17.4854 31.6771 17.7258C31.1533 17.9662 30.5815 18.0839 30.0053 18.0698C29.4291 18.0557 28.8637 17.9103 28.3523 17.6446C27.8408 17.3789 27.3968 16.9999 27.054 16.5366C26.987 16.4456 26.899 16.3722 26.7975 16.3226C26.696 16.2729 26.584 16.2486 26.471 16.2516C24.929 16.2873 23.4627 16.9269 22.3876 18.0328C22.2988 18.1237 22.2145 18.2178 22.1324 18.3133C21.4063 17.8713 20.5835 17.6129 19.7351 17.5607C19.3614 17.5332 19.1672 17.7706 19.011 17.9612C18.6999 18.3413 18.3062 18.6454 17.8598 18.8502C17.4135 19.0551 16.9262 19.1553 16.4352 19.1433C15.9442 19.1313 15.4625 19.0074 15.0266 18.781C14.5908 18.5546 14.2124 18.2317 13.9202 17.8369C13.853 17.7461 13.765 17.6729 13.6635 17.6233C13.562 17.5736 13.4501 17.5491 13.3372 17.5518C11.9638 17.5867 10.6584 18.1568 9.6993 19.1405C8.7402 20.1242 8.20332 21.4436 8.20312 22.8175V27.3812C8.20312 27.5677 8.2772 27.7466 8.40907 27.8784C8.54093 28.0103 8.71977 28.0844 8.90625 28.0844H20.7033V29.6983C20.7033 29.8848 20.7774 30.0636 20.9092 30.1955C21.0411 30.3273 21.2199 30.4014 21.4064 30.4014ZM40.1641 18.9805C40.5976 19.4726 41.1306 19.867 41.7279 20.1377C42.3251 20.4084 42.9731 20.5493 43.6288 20.551C44.2845 20.5527 44.9332 20.4153 45.5319 20.1477C46.1305 19.8801 46.6656 19.4884 47.1016 18.9987C48.016 19.1366 48.8506 19.5978 49.454 20.2984C50.0575 20.9991 50.3898 21.8928 50.3906 22.8175V26.6781H39.3152V22.1674C39.316 21.2311 39.0932 20.3081 38.6654 19.4752C39.1249 19.2073 39.6355 19.0387 40.1641 18.9805ZM26.168 17.6792C26.6541 18.242 27.2555 18.6938 27.9314 19.0041C28.6073 19.3144 29.3419 19.4758 30.0856 19.4776C30.8293 19.4794 31.5647 19.3214 32.2421 19.0143C32.9195 18.7073 33.523 18.2583 34.0118 17.6978C35.0914 17.8471 36.0807 18.3818 36.797 19.2033C37.5133 20.0247 37.9084 21.0775 37.9095 22.1674V28.9951H22.1095V22.1674C22.1165 21.0514 22.5341 19.977 23.2826 19.1492C24.0312 18.3214 25.0583 17.7981 26.168 17.6792ZM9.60938 26.6781V22.8175C9.61532 21.8701 9.96693 20.9576 10.5982 20.2511C11.2294 19.5447 12.0969 19.0931 13.0376 18.981C13.4711 19.4729 14.004 19.8671 14.6012 20.1378C15.1984 20.4084 15.8462 20.5492 16.5018 20.5509C17.1574 20.5525 17.806 20.415 18.4045 20.1475C19.0031 19.8799 19.538 19.4884 19.974 18.9987C20.4582 19.0711 20.924 19.2354 21.3463 19.4829C20.9224 20.3142 20.702 21.2343 20.7033 22.1674V26.6781H9.60938Z" fill="white"/>
<path d="M48.3227 12.6773V10.6491C48.3227 9.38689 47.8213 8.17636 46.9288 7.28384C46.0363 6.39131 44.8257 5.88989 43.5635 5.88989C42.3013 5.88989 41.0908 6.39131 40.1982 7.28384C39.3057 8.17636 38.8043 9.38689 38.8043 10.6491V12.6773C38.8043 13.9395 39.3057 15.15 40.1982 16.0426C41.0908 16.9351 42.3013 17.4365 43.5635 17.4365C44.8257 17.4365 46.0363 16.9351 46.9288 16.0426C47.8213 15.15 48.3227 13.9395 48.3227 12.6773ZM40.2105 12.6773V10.6491C40.2105 9.75985 40.5638 8.90701 41.1926 8.2782C41.8214 7.6494 42.6742 7.29614 43.5635 7.29614C44.4528 7.29614 45.3056 7.6494 45.9344 8.2782C46.5632 8.90701 46.9165 9.75985 46.9165 10.6491V12.6773C46.9165 13.5665 46.5632 14.4194 45.9344 15.0482C45.3056 15.677 44.4528 16.0302 43.5635 16.0302C42.6742 16.0302 41.8214 15.677 41.1926 15.0482C40.5638 14.4194 40.2105 13.5665 40.2105 12.6773Z" fill="white"/>
<path d="M21.1957 12.6773V10.6491C21.1957 10.0241 21.0726 9.40525 20.8334 8.82784C20.5943 8.25042 20.2437 7.72577 19.8018 7.28384C19.3598 6.8419 18.8352 6.49134 18.2578 6.25217C17.6804 6.01299 17.0615 5.88989 16.4365 5.88989C15.8115 5.88989 15.1926 6.01299 14.6152 6.25217C14.0378 6.49134 13.5132 6.8419 13.0712 7.28384C12.6293 7.72577 12.2787 8.25042 12.0396 8.82784C11.8004 9.40525 11.6773 10.0241 11.6773 10.6491V12.6773C11.6773 13.3023 11.8004 13.9211 12.0396 14.4986C12.2787 15.076 12.6293 15.6006 13.0712 16.0426C13.5132 16.4845 14.0378 16.835 14.6152 17.0742C15.1926 17.3134 15.8115 17.4365 16.4365 17.4365C17.0615 17.4365 17.6804 17.3134 18.2578 17.0742C18.8352 16.835 19.3598 16.4845 19.8018 16.0426C20.2437 15.6006 20.5943 15.076 20.8334 14.4986C21.0726 13.9211 21.1957 13.3023 21.1957 12.6773ZM13.0835 12.6773V10.6491C13.0835 9.75985 13.4368 8.90701 14.0656 8.2782C14.6944 7.6494 15.5472 7.29614 16.4365 7.29614C17.3258 7.29614 18.1786 7.6494 18.8074 8.2782C19.4362 8.90701 19.7895 9.75985 19.7895 10.6491V12.6773C19.7895 13.1176 19.7027 13.5536 19.5342 13.9604C19.3657 14.3672 19.1188 14.7368 18.8074 15.0482C18.4961 15.3595 18.1264 15.6065 17.7196 15.775C17.3128 15.9435 16.8768 16.0302 16.4365 16.0302C15.9962 16.0302 15.5602 15.9435 15.1534 15.775C14.7466 15.6065 14.3769 15.3595 14.0656 15.0482C13.7542 14.7368 13.5073 14.3672 13.3388 13.9604C13.1703 13.5536 13.0835 13.1176 13.0835 12.6773Z" fill="white"/>
</svg>
